<svg width="120" height="148" viewBox="0 0 120 148" xmlns="http://www.w3.org/2000/svg">
  <g>
    <path d="M104.79,126.7c.44-10.55-.88-21.66.51-31.95,5.99-5.33,6.35-4.28,5.96-12.8-2.26,1.91-4.27,3.62-6.48,5.49-.03-5.68.08-10.9-.04-16.5-.03-1.23.29-2.12,1.28-2.74,1.01-.63,1.06-1.33.42-2.3-2.02-3.09-4.02-6.19-5.99-9.31-.08.04-.16.09-.24.13-.71,2.88,1,6.65-1.04,9-3.23,2.68-6.2,5.62-9.51,8.19,0-5.34-.04-10.6,0-15.93.94-2.8,4.19-4.18,6.2-6.42-2.46-2.44-5.42-4.01-8.18-6.05-2.98-4.29-4.77-9.44-7.46-14.31,38.49,13.23,53.4,65.22,24.99,95.62-.15-.04-.3-.08-.45-.13Z"/>
    <path d="M40.04,31.49c-2.7,4.54-4.48,9.87-7.65,14.03-19.71,11.44-28.27,36.75-21,58.3.23.72.14,1.16-.41,1.65-2.19,1.74-4.05,4.01-6.37,5.5-13.48-31.24,3.86-68.55,35.43-79.47Z"/>
    <path d="M84.96,85.84c0,18.44-.02,36.75.01,55.17.56,2.43-7.55,3.81-9.75,5.13,0-16.93-.01-33.78.02-50.7,0-.54.31-1.24.7-1.61,3.01-2.72,5.82-5.44,9.01-7.99Z"/>
    <path d="M100.12,98.93c0,10.72-.03,21.06,0,31.73.14,2.52-8.04,7.01-10.36,9.42.14-10.68-.75-21.69.32-32.17,3.26-2.97,6.57-5.9,10.03-8.98Z"/>
    <path d="M89.64,100.22c0-5.92,0-11.84.02-17.76,2.62-3.81,7.02-6.44,10.49-10.01,0,6.09,0,11.76-.06,17.79,0,.44-.11,1.03-.4,1.3-3.23,2.97-6.5,5.88-9.77,8.81-.09-.05-.19-.09-.28-.14Z"/>
    <path d="M75.24,86.6c.02-5.6-.04-10.89.02-16.4,0-.4.16-.92.44-1.17,3.08-2.63,5.98-5.48,9.21-7.92.18,5.34,0,10.67.02,16.01-.19,2.22-7.64,7.49-9.69,9.47Z"/>
    <path d="M23.19,134.69c-.55-.58-1.01-1.06-1.31-1.38,10.14-11.05,21.49-20.92,31.98-31.62,1.64-1.89,3.46.45,1.71,1.66-10.83,10.41-21.54,20.94-32.37,31.34Z"/>
    <path d="M29.5,25.2v-2.93c2.12.16,4.18.31,6.23.47.79.06.55.68.52,1.1-.04.53.28,1.34-.68,1.35-1.99.03-3.98,0-6.07,0Z"/>
    <path d="M90.91,22.29v2.89c-2.11,0-4.18.01-6.24-.03-.85-.36-.44-1.51-.52-2.33,2.23-.18,4.43-.35,6.75-.53Z"/>
    <path d="M82.27,17.61c-2.01-3.2-1.99-3.28,1.63-4.97,2.29,3.58,2.76,2.94-1.63,4.97Z"/>
    <path d="M38.1,17.65c-3.74-1.75-3.8-1.54-1.7-5.24,1.2.82,2.27,1.55,3.38,2.31-.57.99-1.1,1.92-1.69,2.93Z"/>
    <path d="M73.2,7.5c.77-.98,1.51-1.9,2.34-2.95,1.01.81,1.95,1.56,2.95,2.36-2.69,2.9-2.03,3.7-5.29.58Z"/>
    <path d="M44.42,9.72c-.85-.91-1.65-1.78-2.54-2.74,1.03-.87,1.98-1.67,2.98-2.52.78,1.03,1.51,2,2.28,3.01-.94.78-1.79,1.48-2.73,2.25Z"/>
    <path d="M55.76,3.72c-1.08.34-2.1.65-3.21,1-.45-1.15-.88-2.24-1.3-3.31,3.09-1.68,3.71-1.53,4.52,2.31Z"/>
    <path d="M64.72,3.75c.42-1.29.81-2.48,1.23-3.75,1.15.46,2.17.87,3.36,1.34-1.33,3.4-.83,3.86-4.58,2.41Z"/>
    <path d="M14.55,126.17c-1.77-2.25-3.45-4.38-5.17-6.56,12.94-12.66,25.63-25.4,38.76-37.84,3.63-3.42,5.15-7.13,5.01-12.08-.26-9.34-.09-18.64-.12-28-4.84,1.99-9.11,4.73-13.88,7.23,7.11-13.16,14.08-26.07,21.19-39.23,6.96,13.08,13.83,25.99,20.82,39.12-4.59-2.4-8.95-4.67-13.54-7.07,0,29.16-.04,58.29.03,87.45.62,8.37-6.41,12.94-11.47,18.34-1.73,1.51-8-1.23-10.81-1.35,3.82-5.13,15.39-12.31,14.99-18.3-.09-3.59.09-7.07-.1-10.67-8.31,7.99-16.36,15.97-24.57,24.03-1.42,2.2-6.49-2.77-8.74-3.86,10.62-9.11,20.27-19.64,30.57-29.23,1.75-1.69,2.8-3.69,2.81-6.15-.08-9.01.18-18.02-.13-27.02-.61,4.15-1.09,7.97-4.27,10.82-13.83,13.44-27.47,26.99-41.38,40.35Z"/>
  </g>
</svg>